<?xml version="1.0" encoding="UTF-8"?>
<!-- Fused FP  orange interlock + white brush tip; canonical: fp-monogram-master.png -->
<svg xmlns="http://www.w3.org/2000/svg" viewBox="0 0 360 240" role="img" aria-label="Forza Painter FP">
  <rect width="360" height="240" fill="#000000"/>
  <g transform="skewX(-14) translate(32 28)">
    <!-- F+P shared top bar with speed trails -->
    <path fill="#FF6A00" d="M8 12 L8 44 L200 44 L248 36 L280 32 L300 28 L8 12 Z"/>
    <!-- F stem + middle bar; P stem shares spine -->
    <path fill="#FF6A00" d="M8 44 L8 160 L44 160 L44 96 L120 96 L120 72 L44 72 L44 44 Z"/>
    <!-- P bowl -->
    <path fill="#FF6A00" d="M120 72 L120 96 L44 96 L44 160 L120 160 Q200 160 200 116 Q200 72 120 72 Z"/>
    <!-- Black channels -->
    <path fill="#000000" d="M52 52 L108 52 L108 64 L52 64 Z"/>
    <path fill="#000000" d="M128 84 L188 84 L188 100 L128 100 Z"/>
    <!-- Brush tip -->
    <rect x="4" y="148" width="40" height="8" fill="#FFFFFF"/>
    <line x1="6" y1="152" x2="42" y2="152" stroke="#000000" stroke-width="1.2"/>
    <line x1="6" y1="156" x2="42" y2="156" stroke="#000000" stroke-width="1.2"/>
    <path fill="#FFFFFF" d="M4 160 Q-4 178 8 192 Q28 182 36 168 L8 160 Z"/>
  </g>
</svg>
